<svg width="24" height="25" viewBox="0 0 24 25" fill="none" xmlns="http://www.w3.org/2000/svg">
<path d="M17.53 8.57176C17.46 8.56176 17.39 8.56176 17.32 8.57176C15.77 8.52176 14.54 7.25176 14.54 5.69176C14.54 4.10176 15.83 2.80176 17.43 2.80176C19.02 2.80176 20.32 4.09176 20.32 5.69176C20.31 7.25176 19.08 8.52176 17.53 8.57176Z" fill="#292D32"/>
<path d="M20.79 15.5017C19.67 16.2517 18.1 16.5317 16.65 16.3417C17.03 15.5217 17.23 14.6117 17.24 13.6517C17.24 12.6517 17.02 11.7017 16.6 10.8717C18.08 10.6717 19.65 10.9517 20.78 11.7017C22.36 12.7417 22.36 14.4517 20.79 15.5017Z" fill="#292D32"/>
<path d="M6.43997 8.57176C6.50997 8.56176 6.57997 8.56176 6.64997 8.57176C8.19997 8.52176 9.42997 7.25176 9.42997 5.69176C9.42997 4.09176 8.13997 2.80176 6.53997 2.80176C4.94997 2.80176 3.65997 4.09176 3.65997 5.69176C3.65997 7.25176 4.88997 8.52176 6.43997 8.57176Z" fill="#292D32"/>
<path d="M6.55 13.6517C6.55 14.6217 6.75999 15.5417 7.14 16.3717C5.73 16.5217 4.26 16.2217 3.18 15.5117C1.6 14.4617 1.6 12.7517 3.18 11.7017C4.25 10.9817 5.75999 10.6917 7.18 10.8517C6.77 11.6917 6.55 12.6417 6.55 13.6517Z" fill="#292D32"/>
<path d="M12.12 16.6718C12.04 16.6618 11.95 16.6618 11.86 16.6718C10.02 16.6118 8.54999 15.1018 8.54999 13.2418C8.55999 11.3418 10.09 9.80176 12 9.80176C13.9 9.80176 15.44 11.3418 15.44 13.2418C15.43 15.1018 13.97 16.6118 12.12 16.6718Z" fill="#292D32"/>
<path d="M8.86999 18.7418C7.35999 19.7518 7.35999 21.4118 8.86999 22.4118C10.59 23.5618 13.41 23.5618 15.13 22.4118C16.64 21.4018 16.64 19.7418 15.13 18.7418C13.42 17.5918 10.6 17.5918 8.86999 18.7418Z" fill="#292D32"/>
</svg>
