<svg width="24" height="25" viewBox="0 0 24 25" fill="none" xmlns="http://www.w3.org/2000/svg">
<path d="M17.9998 8.71178C17.9698 8.71178 17.9498 8.71178 17.9198 8.71178H17.8698C15.9798 8.65178 14.5698 7.19177 14.5698 5.39177C14.5698 3.55177 16.0698 2.06177 17.8998 2.06177C19.7298 2.06177 21.2298 3.56177 21.2298 5.39177C21.2198 7.20177 19.8098 8.66177 18.0098 8.72177C18.0098 8.71177 18.0098 8.71178 17.9998 8.71178ZM17.8998 3.55177C16.8898 3.55177 16.0698 4.37177 16.0698 5.38177C16.0698 6.37177 16.8398 7.17178 17.8298 7.21178C17.8398 7.20178 17.9198 7.20178 18.0098 7.21178C18.9798 7.16178 19.7298 6.36177 19.7398 5.38177C19.7398 4.37177 18.9198 3.55177 17.8998 3.55177Z" fill="#ffffff"/>
<path d="M18.01 16.0818C17.62 16.0818 17.23 16.0518 16.84 15.9818C16.43 15.9118 16.16 15.5218 16.23 15.1118C16.3 14.7018 16.69 14.4318 17.1 14.5018C18.33 14.7118 19.63 14.4818 20.5 13.9018C20.97 13.5918 21.22 13.2018 21.22 12.8118C21.22 12.4218 20.96 12.0418 20.5 11.7318C19.63 11.1518 18.31 10.9218 17.07 11.1418C16.66 11.2218 16.27 10.9418 16.2 10.5318C16.13 10.1218 16.4 9.73179 16.81 9.66179C18.44 9.37179 20.13 9.68178 21.33 10.4818C22.21 11.0718 22.72 11.9118 22.72 12.8118C22.72 13.7018 22.22 14.5518 21.33 15.1518C20.42 15.7518 19.24 16.0818 18.01 16.0818Z" fill="#ffffff"/>
<path d="M5.96998 8.71176C5.95998 8.71176 5.94998 8.71176 5.94998 8.71176C4.14998 8.65176 2.73998 7.19175 2.72998 5.39175C2.72998 3.55175 4.22998 2.05176 6.05998 2.05176C7.88998 2.05176 9.38998 3.55176 9.38998 5.38176C9.38998 7.19176 7.97998 8.65176 6.17998 8.71176L5.96998 7.96176L6.03998 8.71176C6.01998 8.71176 5.98998 8.71176 5.96998 8.71176ZM6.06998 7.21176C6.12998 7.21176 6.17998 7.21176 6.23998 7.22176C7.12998 7.18176 7.90998 6.38175 7.90998 5.39175C7.90998 4.38175 7.08998 3.56175 6.07998 3.56175C5.06998 3.56175 4.24998 4.38175 4.24998 5.39175C4.24998 6.37175 5.00998 7.16176 5.97998 7.22176C5.98998 7.21176 6.02998 7.21176 6.06998 7.21176Z" fill="#ffffff"/>
<path d="M5.96 16.0818C4.73 16.0818 3.55 15.7518 2.64 15.1518C1.76 14.5618 1.25 13.7118 1.25 12.8118C1.25 11.9218 1.76 11.0718 2.64 10.4818C3.84 9.68178 5.53 9.37179 7.16 9.66179C7.57 9.73179 7.84 10.1218 7.77 10.5318C7.7 10.9418 7.31 11.2218 6.9 11.1418C5.66 10.9218 4.35 11.1518 3.47 11.7318C3 12.0418 2.75 12.4218 2.75 12.8118C2.75 13.2018 3.01 13.5918 3.47 13.9018C4.34 14.4818 5.64 14.7118 6.87 14.5018C7.28 14.4318 7.67 14.7118 7.74 15.1118C7.81 15.5218 7.54 15.9118 7.13 15.9818C6.74 16.0518 6.35 16.0818 5.96 16.0818Z" fill="#ffffff"/>
<path d="M11.9998 16.1817C11.9698 16.1817 11.9498 16.1817 11.9198 16.1817H11.8698C9.97982 16.1217 8.56982 14.6617 8.56982 12.8617C8.56982 11.0217 10.0698 9.53174 11.8998 9.53174C13.7298 9.53174 15.2298 11.0317 15.2298 12.8617C15.2198 14.6717 13.8098 16.1317 12.0098 16.1917C12.0098 16.1817 12.0098 16.1817 11.9998 16.1817ZM11.8998 11.0217C10.8898 11.0217 10.0698 11.8417 10.0698 12.8517C10.0698 13.8417 10.8398 14.6417 11.8298 14.6817C11.8398 14.6717 11.9198 14.6717 12.0098 14.6817C12.9798 14.6317 13.7298 13.8317 13.7398 12.8517C13.7398 11.8517 12.9198 11.0217 11.8998 11.0217Z" fill="#ffffff"/>
<path d="M11.9998 23.5617C10.7998 23.5617 9.59978 23.2517 8.66978 22.6217C7.78978 22.0317 7.27979 21.1917 7.27979 20.2917C7.27979 19.4017 7.77978 18.5417 8.66978 17.9517C10.5398 16.7117 13.4698 16.7117 15.3298 17.9517C16.2098 18.5417 16.7198 19.3817 16.7198 20.2817C16.7198 21.1717 16.2198 22.0317 15.3298 22.6217C14.3998 23.2417 13.1998 23.5617 11.9998 23.5617ZM9.49979 19.2117C9.02979 19.5217 8.77979 19.9117 8.77979 20.3017C8.77979 20.6917 9.03979 21.0717 9.49979 21.3817C10.8498 22.2917 13.1398 22.2917 14.4898 21.3817C14.9598 21.0717 15.2098 20.6817 15.2098 20.2917C15.2098 19.9017 14.9498 19.5217 14.4898 19.2117C13.1498 18.3017 10.8598 18.3117 9.49979 19.2117Z" fill="#ffffff"/>
</svg>
