<svg width="18" height="22" viewBox="0 0 18 22" fill="none" xmlns="http://www.w3.org/2000/svg">
<path d="M13.75 6V5.25H12.25V6H13.75ZM5.75 6V5.25H4.25V6H5.75ZM9 1L9.26334 0.297753C9.09355 0.234082 8.90645 0.234082 8.73666 0.297753L9 1ZM1 4L0.736657 3.29775C0.44393 3.40753 0.25 3.68737 0.25 4C0.25 4.31263 0.44393 4.59247 0.736657 4.70225L1 4ZM9 7L8.73666 7.70225C8.90645 7.76592 9.09355 7.76592 9.26334 7.70225L9 7ZM17 4L17.2633 4.70225C17.5561 4.59247 17.75 4.31263 17.75 4C17.75 3.68737 17.5561 3.40753 17.2633 3.29775L17 4ZM9.71103 16.0059L9.17776 15.4785V15.4785L9.71103 16.0059ZM11.2996 14.3996L11.8328 14.927L11.8328 14.927L11.2996 14.3996ZM12.238 14.1441L12.4496 13.4246L12.238 14.1441ZM6.70045 14.3996L7.23372 13.8722L6.70045 14.3996ZM8.28897 16.0059L8.82224 15.4785L8.28897 16.0059ZM5.762 14.1441L5.5504 13.4246L5.762 14.1441ZM16.25 21C16.25 21.4142 16.5858 21.75 17 21.75C17.4142 21.75 17.75 21.4142 17.75 21H16.25ZM0.25 21C0.25 21.4142 0.585786 21.75 1 21.75C1.41421 21.75 1.75 21.4142 1.75 21H0.25ZM12.25 6V8H13.75V6H12.25ZM5.75 8V6H4.25V8H5.75ZM9 11.25C7.20507 11.25 5.75 9.79493 5.75 8H4.25C4.25 10.6234 6.37665 12.75 9 12.75V11.25ZM12.25 8C12.25 9.79493 10.7949 11.25 9 11.25V12.75C11.6234 12.75 13.75 10.6234 13.75 8H12.25ZM8.73666 0.297753L0.736657 3.29775L1.26334 4.70225L9.26334 1.70225L8.73666 0.297753ZM9.26334 7.70225L17.2633 4.70225L16.7367 3.29775L8.73666 6.29775L9.26334 7.70225ZM8.73666 1.70225L16.7367 4.70225L17.2633 3.29775L9.26334 0.297753L8.73666 1.70225ZM9.26334 6.29775L1.26334 3.29775L0.736657 4.70225L8.73666 7.70225L9.26334 6.29775ZM10.2443 16.5332L11.8328 14.927L10.7663 13.8722L9.17776 15.4785L10.2443 16.5332ZM12.0264 14.8637C14.6994 15.6497 16.25 17.3265 16.25 19H17.75C17.75 16.3393 15.3869 14.2884 12.4496 13.4246L12.0264 14.8637ZM6.16718 14.927L7.7557 16.5332L8.82224 15.4785L7.23372 13.8722L6.16718 14.927ZM1.75 19C1.75 17.3265 3.30063 15.6497 5.97359 14.8637L5.5504 13.4246C2.61309 14.2884 0.25 16.3393 0.25 19H1.75ZM16.25 19V21H17.75V19H16.25ZM0.25 19V21H1.75V19H0.25ZM7.23372 13.8722C6.81027 13.444 6.17106 13.2421 5.5504 13.4246L5.97359 14.8637C6.02255 14.8493 6.09983 14.8589 6.16718 14.927L7.23372 13.8722ZM11.8328 14.927C11.9002 14.8589 11.9774 14.8493 12.0264 14.8637L12.4496 13.4246C11.8289 13.2421 11.1897 13.444 10.7663 13.8722L11.8328 14.927ZM9.17776 15.4785C9.07991 15.5774 8.92009 15.5774 8.82224 15.4785L7.7557 16.5332C8.44066 17.2259 9.55934 17.2259 10.2443 16.5332L9.17776 15.4785Z" fill="#28303F"/>
</svg>
