<svg width="18" height="22" viewBox="0 0 18 22" fill="none" xmlns="http://www.w3.org/2000/svg">
<path d="M14.6245 15.8157C14.2659 16.0231 14.1434 16.4819 14.3508 16.8404C14.5582 17.199 15.017 17.3215 15.3755 17.1141L14.6245 15.8157ZM2.62445 17.1141C2.983 17.3215 3.4418 17.199 3.6492 16.8404C3.85661 16.4819 3.73409 16.0231 3.37554 15.8157L2.62445 17.1141ZM5 4.25C4.58579 4.25 4.25 4.58579 4.25 5C4.25 5.41421 4.58579 5.75 5 5.75V4.25ZM13 5.75C13.4142 5.75 13.75 5.41421 13.75 5C13.75 4.58579 13.4142 4.25 13 4.25V5.75ZM5 8.25C4.58579 8.25 4.25 8.58579 4.25 9C4.25 9.41421 4.58579 9.75 5 9.75V8.25ZM9 9.75C9.41421 9.75 9.75 9.41421 9.75 9C9.75 8.58579 9.41421 8.25 9 8.25V9.75ZM7.25 17.5V16.75H5.75V17.5H7.25ZM6.5 21H5.75C5.75 21.2489 5.87345 21.4815 6.07953 21.621C6.28561 21.7606 6.54747 21.7888 6.77854 21.6964L6.5 21ZM9 20L9.27854 19.3036C9.09973 19.2321 8.90027 19.2321 8.72146 19.3036L9 20ZM11.5 21L11.2215 21.6964C11.4525 21.7888 11.7144 21.7606 11.9205 21.621C12.1266 21.4815 12.25 21.2489 12.25 21H11.5ZM12.25 17.5V16.75H10.75V17.5H12.25ZM16.25 5V13H17.75V5H16.25ZM1.75 13V5H0.25V13H1.75ZM5 1.75H13V0.25H5V1.75ZM1.75 5C1.75 3.20507 3.20508 1.75 5 1.75V0.25C2.37665 0.25 0.25 2.37665 0.25 5H1.75ZM17.75 5C17.75 2.37665 15.6234 0.25 13 0.25V1.75C14.7949 1.75 16.25 3.20507 16.25 5H17.75ZM16.25 13C16.25 14.202 15.5978 15.2526 14.6245 15.8157L15.3755 17.1141C16.7934 16.2939 17.75 14.7591 17.75 13H16.25ZM0.25 13C0.25 14.7591 1.20663 16.2939 2.62445 17.1141L3.37554 15.8157C2.40216 15.2526 1.75 14.202 1.75 13H0.25ZM11.25 15C11.25 16.2426 10.2426 17.25 9 17.25V18.75C11.0711 18.75 12.75 17.0711 12.75 15H11.25ZM9 17.25C7.75736 17.25 6.75 16.2426 6.75 15H5.25C5.25 17.0711 6.92893 18.75 9 18.75V17.25ZM6.75 15C6.75 13.7574 7.75736 12.75 9 12.75V11.25C6.92893 11.25 5.25 12.9289 5.25 15H6.75ZM9 12.75C10.2426 12.75 11.25 13.7574 11.25 15H12.75C12.75 12.9289 11.0711 11.25 9 11.25V12.75ZM5 5.75H13V4.25H5V5.75ZM5 9.75H9V8.25H5V9.75ZM5.75 17.5V21H7.25V17.5H5.75ZM6.77854 21.6964L9.27854 20.6964L8.72146 19.3036L6.22146 20.3036L6.77854 21.6964ZM8.72146 20.6964L11.2215 21.6964L11.7785 20.3036L9.27854 19.3036L8.72146 20.6964ZM12.25 21V17.5H10.75V21H12.25Z" fill="#28303F"/>
</svg>
