<svg width="22" height="22" viewBox="0 0 22 22" fill="none" xmlns="http://www.w3.org/2000/svg">
<path d="M14.5 4.25C14.0858 4.25 13.75 4.58579 13.75 5C13.75 5.41421 14.0858 5.75 14.5 5.75V4.25ZM17.5 5.75C17.9142 5.75 18.25 5.41421 18.25 5C18.25 4.58579 17.9142 4.25 17.5 4.25V5.75ZM4.5 4.25C4.08579 4.25 3.75 4.58579 3.75 5C3.75 5.41421 4.08579 5.75 4.5 5.75V4.25ZM7.5 5.75C7.91421 5.75 8.25 5.41421 8.25 5C8.25 4.58579 7.91421 4.25 7.5 4.25V5.75ZM14.5 8.25C14.0858 8.25 13.75 8.58579 13.75 9C13.75 9.41421 14.0858 9.75 14.5 9.75V8.25ZM17.5 9.75C17.9142 9.75 18.25 9.41421 18.25 9C18.25 8.58579 17.9142 8.25 17.5 8.25V9.75ZM4.5 8.25C4.08579 8.25 3.75 8.58579 3.75 9C3.75 9.41421 4.08579 9.75 4.5 9.75V8.25ZM7.5 9.75C7.91421 9.75 8.25 9.41421 8.25 9C8.25 8.58579 7.91421 8.25 7.5 8.25V9.75ZM20.25 5V17H21.75V5H20.25ZM1.75 17V5H0.25V17H1.75ZM5 1.75H11V0.25H5V1.75ZM11 1.75H17V0.25H11V1.75ZM17 20.25H11V21.75H17V20.25ZM11 20.25H5V21.75H11V20.25ZM10.25 1V21H11.75V1H10.25ZM0.25 17C0.25 19.6234 2.37665 21.75 5 21.75V20.25C3.20507 20.25 1.75 18.7949 1.75 17H0.25ZM20.25 17C20.25 18.7949 18.7949 20.25 17 20.25V21.75C19.6234 21.75 21.75 19.6234 21.75 17H20.25ZM21.75 5C21.75 2.37665 19.6234 0.25 17 0.25V1.75C18.7949 1.75 20.25 3.20507 20.25 5H21.75ZM1.75 5C1.75 3.20507 3.20507 1.75 5 1.75V0.25C2.37665 0.25 0.25 2.37665 0.25 5H1.75ZM14.5 5.75H17.5V4.25H14.5V5.75ZM4.5 5.75H7.5V4.25H4.5V5.75ZM14.5 9.75H17.5V8.25H14.5V9.75ZM4.5 9.75H7.5V8.25H4.5V9.75Z" fill="#28303F"/>
</svg>
